{"title":"Bachelor Party - 1984 (DvdRip,Xvid)....Rojo","uid":5974648,"size":1050372007,"categoryP":"video","categoryS":"movies","magnet":"?xt=urn:btih:865b6ae9a4fe47059958d886a763e03479fd5afc&amp;dn=Bachelor+Party+-+1984+%28DvdRip%2CXvid%29....Rojo&amp;tr=udp%3A%2F%2Ftracker.openbittorrent.com%3A80&amp;tr=udp%3A%2F%2Fopen.demonii.com%3A1337&amp;tr=udp%3A%2F%2Ftracker.coppersurfer.tk%3A6969&amp;tr=udp%3A%2F%2Fexodus.desync.com%3A6969","seeders":4,"leechers":0,"uploader":"deffjam555","files":4,"time":1290412425,"description":"\nParty-animal Rick Gassko (Tom Hanks) decides to finally settle down and marry his girlfriend Debbie Thompson (Tawny Kitaen). After gathering his buddies to give them the news, his shocked friends (led by Adrian Zmed), decide to throw him the bachelor party to end all bachelor parties. The bride's parents are not at all happy with her decision and her father decides to enlist the help of Debbie's ex-boyfriend Cole Whittier (Robert Prescott) to break them up and win her back.\n\nTom Hanks as Rick Gassko\nTawny Kitaen as Debbie Thompson\nAdrian Zmed as Jay O'Neill\nGeorge Grizzard as Mr. Thompson\nBarbara Stuart as Mrs. Thompson\nRobert Prescott as Cole Whittier\n\nscreens\n &lt;a href=&quot;\nhttp://img508.imageshack.us/img508/1118/47806267.png&quot; rel=&quot;nofollow&quot; target=&quot;_NEW&quot;&gt;\nhttp://img508.imageshack.us/img508/1118/47806267.png&lt;/a&gt; &lt;a href=&quot;\nhttp://img823.imageshack.us/img823/3083/85380749.png&quot; rel=&quot;nofollow&quot; target=&quot;_NEW&quot;&gt;\nhttp://img823.imageshack.us/img823/3083/85380749.png&lt;/a&gt; &lt;a href=&quot;\nhttp://img833.imageshack.us/img833/5857/80136324.png&quot; rel=&quot;nofollow&quot; target=&quot;_NEW&quot;&gt;\nhttp://img833.imageshack.us/img833/5857/80136324.png&lt;/a&gt; &lt;a href=&quot;\nhttp://img338.imageshack.us/img338/2067/97422588.png&quot; rel=&quot;nofollow&quot; target=&quot;_NEW&quot;&gt;\nhttp://img338.imageshack.us/img338/2067/97422588.png&lt;/a&gt; &lt;a href=&quot;\nhttp://img545.imageshack.us/img545/146/24140644.png&quot; rel=&quot;nofollow&quot; target=&quot;_NEW&quot;&gt;\nhttp://img545.imageshack.us/img545/146/24140644.png&lt;/a&gt; &lt;a href=&quot;\nhttp://img593.imageshack.us/img593/5703/69886228.png&quot; rel=&quot;nofollow&quot; target=&quot;_NEW&quot;&gt;\nhttp://img593.imageshack.us/img593/5703/69886228.png&lt;/a&gt; &lt;a href=&quot;\nhttp://img683.imageshack.us/img683/8722/60025934.png&quot; rel=&quot;nofollow&quot; target=&quot;_NEW&quot;&gt;\nhttp://img683.imageshack.us/img683/8722/60025934.png&lt;/a&gt; &lt;a href=&quot;\nhttp://img42.imageshack.us/img42/7697/74240814.png&quot; rel=&quot;nofollow&quot; target=&quot;_NEW&quot;&gt;\nhttp://img42.imageshack.us/img42/7697/74240814.png&lt;/a&gt;\n\n\nGeneral\nComplete name : Bachelor Party - 1984 (DvdRip,Xvid)BACHELOR_PARTY.avi\nFormat : AVI\nFormat/Info : Audio Video Interleave\nFile size : 1 000 MiB\nDuration : 1h 41mn\nOverall bit rate : 1 381 Kbps\nWriting application : VirtualDubMod 1.5.4.1 (build 2178/release)\nWriting library : VirtualDubMod build 2178/release\n\nVideo\nID : 0\nFormat : MPEG-4 Visual\nFormat profile : Advanced Simple@L5\nFormat settings, BVOP : Yes\nFormat settings, QPel : No\nFormat settings, GMC : No warppoints\nFormat settings, Matrix : Default (H.263)\nMuxing mode : Packed bitstream\nCodec ID : XVID\nCodec ID/Hint : XviD\nDuration : 1h 41mn\nBit rate : 990 Kbps\nWidth : 592 pixels\nHeight : 320 pixels\nDisplay aspect ratio : 1.850\nFrame rate : 25.000 fps\nColor space : YUV\nChroma subsampling : 4:2:0\nBit depth : 8 bits\nScan type : Progressive\nBits/(Pixel*Frame) : 0.209\nStream size : 717 MiB (72%)\nWriting library : XviD 1.2.1 (UTC 2008-12-04)\n\nAudio\nID : 1\nFormat : AC-3\nFormat/Info : Audio Coding 3\nMode extension : CM (complete main)\nCodec ID : 2000\nDuration : 1h 41mn\nBit rate mode : Constant\nBit rate : 384 Kbps\nChannel(s) : 4 channels\nChannel positions : Front: L C R, Side: C\nSampling rate : 48.0 KHz\nBit depth : 16 bits\nVideo delay : 16ms\nStream size : 278 MiB (28%)\nAlignment : Split accross interleaves\nInterleave, duration : 80 ms (2.00 video frames)\nInterleave, preload duration : 500 ms\nLanguage : English\n","torrent":{"xt":"urn:btih:865b6ae9a4fe47059958d886a763e03479fd5afc","amp;dn":"Bachelor+Party+-+1984+%28DvdRip%2CXvid%29....Rojo","amp;tr":["udp%3A%2F%2Ftracker.openbittorrent.com%3A80","udp%3A%2F%2Fopen.demonii.com%3A1337","udp%3A%2F%2Ftracker.coppersurfer.tk%3A6969","udp%3A%2F%2Fexodus.desync.com%3A6969"],"infoHash":"865b6ae9a4fe47059958d886a763e03479fd5afc","infoHashBuffer":{"type":"Buffer","data":[134,91,106,233,164,254,71,5,153,88,216,134,167,99,224,52,121,253,90,252]},"announce":[],"urlList":[]}}